<?xml version="1.0" standalone="no"?>
<!DOCTYPE svg PUBLIC "-//W3C//DTD SVG 20010904//EN"
 "http://www.w3.org/TR/2001/REC-SVG-20010904/DTD/svg10.dtd">
<svg version="1.0" xmlns="http://www.w3.org/2000/svg"
 width="877.000000pt" height="284.000000pt" viewBox="0 0 877.000000 284.000000"
 preserveAspectRatio="xMidYMid meet">

<g transform="translate(0.000000,284.000000) scale(0.100000,-0.100000)"
fill="#000000" stroke="none">
<path d="M4740 1931 l0 -229 -64 43 c-161 108 -394 82 -522 -57 -85 -93 -118
-204 -117 -403 0 -254 67 -402 216 -475 165 -81 351 -57 469 61 44 43 58 53
62 40 2 -9 10 -40 16 -68 l12 -53 154 0 154 0 0 685 0 685 -190 0 -190 0 0
-229z m-118 -401 c47 -13 92 -60 108 -113 7 -23 12 -86 12 -141 -1 -115 -24
-176 -81 -213 -42 -28 -120 -31 -171 -5 -60 29 -80 85 -80 220 0 63 5 132 11
153 25 82 110 124 201 99z"/>
<path d="M6640 2035 l0 -125 190 0 190 0 0 125 0 125 -190 0 -190 0 0 -125z"/>
<path d="M7280 1475 l0 -685 185 0 185 0 0 685 0 685 -185 0 -185 0 0 -685z"/>
<path d="M7910 1475 l0 -685 190 0 190 0 0 685 0 685 -190 0 -190 0 0 -685z"/>
<path d="M1005 2110 c-294 -33 -472 -177 -542 -440 -25 -92 -25 -368 0 -460
61 -227 195 -360 424 -421 94 -25 322 -31 418 -10 121 26 208 68 278 132 101
91 146 187 162 337 l7 62 -195 0 -194 0 -6 -52 c-17 -138 -167 -219 -323 -173
-108 31 -158 116 -169 291 -13 193 26 338 104 390 94 62 228 54 307 -18 44
-40 74 -105 74 -160 l0 -28 201 0 201 0 -7 68 c-26 245 -175 411 -420 465 -90
20 -231 27 -320 17z"/>
<path d="M5380 1440 l0 -650 210 0 210 0 0 235 0 235 275 0 275 0 0 145 0 145
-275 0 -275 0 0 115 0 115 318 2 317 3 3 153 3 152 -531 0 -530 0 0 -650z"/>
<path d="M2455 1795 c-63 -24 -103 -56 -138 -109 l-32 -50 -7 45 c-4 24 -10
59 -13 77 l-6 32 -154 0 -155 0 0 -500 0 -500 189 0 190 0 3 273 c3 269 3 272
28 317 38 68 88 91 210 97 l99 6 3 149 c2 83 0 155 -4 161 -11 18 -167 19
-213 2z"/>
<path d="M3195 1803 c-164 -22 -319 -121 -378 -243 -47 -97 -60 -171 -54 -305
6 -132 21 -190 72 -270 63 -99 153 -159 293 -197 61 -16 107 -21 222 -21 158
0 252 18 347 66 103 53 174 152 189 265 l7 52 -181 0 -181 0 -11 -39 c-21 -81
-105 -121 -222 -108 -94 12 -148 67 -163 170 -7 45 -6 47 16 47 13 0 184 2
379 3 l355 2 -1 95 c-3 264 -132 421 -387 474 -70 15 -225 19 -302 9z m235
-251 c37 -20 80 -89 80 -129 l0 -23 -189 0 -189 0 10 38 c13 49 49 95 90 115
46 23 153 22 198 -1z"/>
<path d="M6640 1290 l0 -500 190 0 190 0 0 500 0 500 -190 0 -190 0 0 -500z"/>
</g>
</svg>
